ply
format ascii 1.0
comment pointcloud saved from Fourth Logic(R) FLImaging(R)
element vertex 282
property float32 x
property float32 y
property float32 z
property float32 nx
property float32 ny
property float32 nz
property uchar red
property uchar green
property uchar blue
end_header
-360.632050 289.474274 -434.923920
0.000000 0.000000 0.000000
0 255 255
-360.428711 288.613495 -434.859558
0.000000 0.000000 0.000000
0 255 255
-360.312469 287.763580 -434.850403
0.000000 0.000000 0.000000
0 255 255
-360.224670 286.863586 -434.710083
0.000000 0.000000 0.000000
0 255 255
-360.105011 286.020050 -434.717255
0.000000 0.000000 0.000000
0 255 255
-359.898163 285.165527 -434.669220
0.000000 0.000000 0.000000
0 255 255
-359.667938 283.461609 -434.637848
0.000000 0.000000 0.000000
0 255 255
-359.265106 280.842621 -434.398315
0.000000 0.000000 0.000000
0 255 255
-358.931549 278.265869 -434.295868
0.000000 0.000000 0.000000
0 255 255
-358.503876 275.690552 -434.170959
0.000000 0.000000 0.000000
0 255 255
-358.170227 273.113983 -434.068481
0.000000 0.000000 0.000000
0 255 255
-357.923553 270.548462 -434.020935
0.000000 0.000000 0.000000
0 255 255
-357.499420 267.966827 -433.879791
0.000000 0.000000 0.000000
0 255 255
-356.992676 264.248322 -433.726898
0.000000 0.000000 0.000000
0 255 255
-356.594238 260.503387 -433.530884
0.000000 0.000000 0.000000
0 255 255
-356.177979 256.789856 -433.416656
0.000000 0.000000 0.000000
0 255 255
-355.570099 253.085144 -433.274017
0.000000 0.000000 0.000000
0 255 255
-355.157257 249.365463 -433.143372
0.000000 0.000000 0.000000
0 255 255
-354.671814 245.609451 -432.892639
0.000000 0.000000 0.000000
0 255 255
-354.177765 241.790039 -432.656342
0.000000 0.000000 0.000000
0 255 255
-353.757812 237.971115 -432.523102
0.000000 0.000000 0.000000
0 255 255
-353.435150 234.145035 -432.395691
0.000000 0.000000 0.000000
0 255 255
-352.935333 230.302322 -432.175049
0.000000 0.000000 0.000000
0 255 255
-352.494080 226.521317 -432.139404
0.000000 0.000000 0.000000
0 255 255
-352.070587 222.709106 -432.022369
0.000000 0.000000 0.000000
0 255 255
-351.666199 218.769821 -431.786896
0.000000 0.000000 0.000000
0 255 255
-351.252625 214.753464 -431.563202
0.000000 0.000000 0.000000
0 255 255
-350.828644 210.756104 -431.388489
0.000000 0.000000 0.000000
0 255 255
-350.394073 206.777496 -431.262329
0.000000 0.000000 0.000000
0 255 255
-349.883240 202.768524 -431.032898
0.000000 0.000000 0.000000
0 255 255
-349.448700 198.790131 -430.906738
0.000000 0.000000 0.000000
0 255 255
-349.025055 194.772217 -430.763092
0.000000 0.000000 0.000000
0 255 255
-348.584198 190.435196 -430.536987
0.000000 0.000000 0.000000
0 255 255
-348.129517 186.123215 -430.375885
0.000000 0.000000 0.000000
0 255 255
-347.671417 181.817398 -430.230896
0.000000 0.000000 0.000000
0 255 255
-347.216644 177.505402 -430.069702
0.000000 0.000000 0.000000
0 255 255
-346.768951 173.180969 -429.876068
0.000000 0.000000 0.000000
0 255 255
-346.244446 169.009460 -429.760925
0.000000 0.000000 0.000000
0 255 255
-345.885315 165.274109 -429.594116
0.000000 0.000000 0.000000
0 255 255
-345.623322 161.532364 -429.433167
0.000000 0.000000 0.000000
0 255 255
-345.257080 157.809387 -429.298828
0.000000 0.000000 0.000000
0 255 255
-344.894348 154.080078 -429.148163
0.000000 0.000000 0.000000
0 255 255
-344.611176 150.375656 -429.084625
0.000000 0.000000 0.000000
0 255 255
-344.259094 146.627625 -428.885376
0.000000 0.000000 0.000000
0 255 255
-343.925720 142.750977 -428.746185
0.000000 0.000000 0.000000
0 255 255
-343.701599 138.823593 -428.595520
0.000000 0.000000 0.000000
0 255 255
-343.390808 134.883606 -428.390289
0.000000 0.000000 0.000000
0 255 255
-343.148773 130.987457 -428.320740
0.000000 0.000000 0.000000
0 255 255
-342.913849 127.078812 -428.218781
0.000000 0.000000 0.000000
0 255 255
-342.592285 123.157372 -428.062256
0.000000 0.000000 0.000000
0 255 255
-342.362793 119.158463 -427.925537
0.000000 0.000000 0.000000
0 255 255
-342.143555 114.953049 -427.718506
0.000000 0.000000 0.000000
0 255 255
-341.909973 110.772598 -427.576447
0.000000 0.000000 0.000000
0 255 255
-341.679993 106.585999 -427.418274
0.000000 0.000000 0.000000
0 255 255
-341.432037 102.430611 -427.341187
0.000000 0.000000 0.000000
0 255 255
-341.277863 98.275856 -427.286285
0.000000 0.000000 0.000000
0 255 255
-341.066437 94.085060 -427.046967
0.000000 0.000000 0.000000
0 255 255
-340.846252 90.020752 -426.857422
0.000000 0.000000 0.000000
0 255 255
-340.615143 85.975227 -426.716553
0.000000 0.000000 0.000000
0 255 255
-340.369629 81.954735 -426.640747
0.000000 0.000000 0.000000
0 255 255
-340.239777 77.897583 -426.489532
0.000000 0.000000 0.000000
0 255 255
-340.099030 73.859314 -426.387146
0.000000 0.000000 0.000000
0 255 255
-339.885956 69.826035 -426.183044
0.000000 0.000000 0.000000
0 255 255
-339.753510 65.917839 -426.102844
0.000000 0.000000 0.000000
0 255 255
-339.631836 61.990990 -425.973785
0.000000 0.000000 0.000000
0 255 255
-339.416138 58.063168 -425.822632
0.000000 0.000000 0.000000
0 255 255
-339.280182 54.161537 -425.758728
0.000000 0.000000 0.000000
0 255 255
-339.158569 50.234974 -425.629669
0.000000 0.000000 0.000000
0 255 255
-339.053833 46.321053 -425.437073
0.000000 0.000000 0.000000
0 255 255
-338.924194 42.620140 -425.413177
0.000000 0.000000 0.000000
0 255 255
-338.931305 38.845486 -425.216034
0.000000 0.000000 0.000000
0 255 255
-338.812500 35.126038 -425.143250
0.000000 0.000000 0.000000
0 255 255
-338.690125 31.412989 -425.086823
0.000000 0.000000 0.000000
0 255 255
-338.581848 27.674990 -424.965210
0.000000 0.000000 0.000000
0 255 255
-338.564117 23.944832 -424.882050
0.000000 0.000000 0.000000
0 255 255
-338.529510 19.912500 -424.788116
0.000000 0.000000 0.000000
0 255 255
-338.417633 15.765607 -424.571594
0.000000 0.000000 0.000000
0 255 255
-338.368317 11.676868 -424.524017
0.000000 0.000000 0.000000
0 255 255
-338.332947 7.563274 -424.411163
0.000000 0.000000 0.000000
0 255 255
-338.300995 3.443623 -424.281891
0.000000 0.000000 0.000000
0 255 255
-338.262207 -0.663266 -424.185272
0.000000 0.000000 0.000000
0 255 255
-338.138702 -4.791713 -424.016907
0.000000 0.000000 0.000000
0 255 255
-338.091309 -8.887584 -423.951813
0.000000 0.000000 0.000000
0 255 255
-338.168701 -13.037764 -423.761810
0.000000 0.000000 0.000000
0 255 255
-338.208710 -17.118629 -423.751404
0.000000 0.000000 0.000000
0 255 255
-338.174988 -21.238800 -423.620880
0.000000 0.000000 0.000000
0 255 255
-338.043823 -25.354536 -423.484619
0.000000 0.000000 0.000000
0 255 255
-338.114532 -29.313835 -423.401947
0.000000 0.000000 0.000000
0 255 255
-338.124847 -33.071957 -423.245911
0.000000 0.000000 0.000000
0 255 255
-338.118622 -36.798523 -423.171570
0.000000 0.000000 0.000000
0 255 255
-338.115662 -40.531158 -423.080872
0.000000 0.000000 0.000000
0 255 255
-338.200195 -44.248760 -423.044922
0.000000 0.000000 0.000000
0 255 255
-338.203796 -47.993519 -422.921387
0.000000 0.000000 0.000000
0 255 255
-338.307892 -51.748257 -422.787231
0.000000 0.000000 0.000000
0 255 255
-338.268829 -55.824440 -422.771027
0.000000 0.000000 0.000000
0 255 255
-338.258789 -59.956985 -422.607513
0.000000 0.000000 0.000000
0 255 255
-338.232788 -64.058022 -422.525757
0.000000 0.000000 0.000000
0 255 255
-338.300781 -68.156326 -422.466064
0.000000 0.000000 0.000000
0 255 255
-338.277924 -72.263313 -422.367981
0.000000 0.000000 0.000000
0 255 255
-338.164246 -76.379089 -422.231445
0.000000 0.000000 0.000000
0 255 255
-338.268982 -80.321983 -422.213776
0.000000 0.000000 0.000000
0 255 255
-338.329803 -84.262726 -422.099854
0.000000 0.000000 0.000000
0 255 255
-338.371552 -88.165703 -422.084320
0.000000 0.000000 0.000000
0 255 255
-338.347809 -92.128128 -421.899048
0.000000 0.000000 0.000000
0 255 255
-338.373383 -95.999619 -421.965698
0.000000 0.000000 0.000000
0 255 255
-338.368958 -99.999954 -421.681915
0.000000 0.000000 0.000000
0 255 255
-338.431427 -103.942749 -421.563690
0.000000 0.000000 0.000000
0 255 255
-338.533691 -107.882507 -421.460144
0.000000 0.000000 0.000000
0 255 255
-338.717102 -111.794098 -421.444244
0.000000 0.000000 0.000000
0 255 255
-338.816040 -115.727631 -421.357117
0.000000 0.000000 0.000000
0 255 255
-338.999451 -119.639221 -421.341217
0.000000 0.000000 0.000000
0 255 255
-339.199097 -123.582283 -421.243347
0.000000 0.000000 0.000000
0 255 255
-339.299347 -127.535141 -421.173187
0.000000 0.000000 0.000000
0 255 255
-339.514862 -131.593155 -421.110992
0.000000 0.000000 0.000000
0 255 255
-339.733765 -135.657501 -421.032501
0.000000 0.000000 0.000000
0 255 255
-339.972137 -139.759354 -420.855865
0.000000 0.000000 0.000000
0 255 255
-340.174591 -143.792236 -420.859070
0.000000 0.000000 0.000000
0 255 255
-340.299408 -147.859909 -420.758575
0.000000 0.000000 0.000000
0 255 255
-340.518188 -151.924057 -420.680176
0.000000 0.000000 0.000000
0 255 255
-340.830200 -155.871460 -420.634369
0.000000 0.000000 0.000000
0 255 255
-341.028839 -159.772781 -420.664276
0.000000 0.000000 0.000000
0 255 255
-341.337830 -163.701752 -420.634216
0.000000 0.000000 0.000000
0 255 255
-341.549561 -167.628006 -420.598633
0.000000 0.000000 0.000000
0 255 255
-341.865021 -171.569351 -420.535980
0.000000 0.000000 0.000000
0 255 255
-342.180603 -175.510620 -420.473328
0.000000 0.000000 0.000000
0 255 255
-342.499542 -179.564392 -420.374969
0.000000 0.000000 0.000000
0 255 255
-342.778381 -183.699310 -420.451782
0.000000 0.000000 0.000000
0 255 255
-342.998993 -187.907120 -420.326782
0.000000 0.000000 0.000000
0 255 255
-343.391327 -192.075439 -420.327515
0.000000 0.000000 0.000000
0 255 255
-343.786926 -196.249802 -420.311798
0.000000 0.000000 0.000000
0 255 255
-344.085297 -200.421844 -420.290527
0.000000 0.000000 0.000000
0 255 255
-344.392029 -204.485931 -420.207367
0.000000 0.000000 0.000000
0 255 255
-344.782166 -208.235657 -420.154419
0.000000 0.000000 0.000000
0 255 255
-345.078339 -211.989395 -420.079590
0.000000 0.000000 0.000000
0 255 255
-345.474487 -215.751221 -419.993958
0.000000 0.000000 0.000000
0 255 255
-345.757843 -219.479645 -419.984406
0.000000 0.000000 0.000000
0 255 255
-346.135162 -223.203430 -419.996796
0.000000 0.000000 0.000000
0 255 255
-346.512451 -226.927124 -420.009216
0.000000 0.000000 0.000000
0 255 255
-347.016449 -231.079727 -419.971863
0.000000 0.000000 0.000000
0 255 255
-347.431610 -235.288269 -419.895447
0.000000 0.000000 0.000000
0 255 255
-347.746765 -239.488525 -419.829895
0.000000 0.000000 0.000000
0 255 255
-348.164917 -243.702881 -419.737244
0.000000 0.000000 0.000000
0 255 255
-348.667603 -247.893585 -419.715485
0.000000 0.000000 0.000000
0 255 255
-349.088379 -252.113754 -419.606476
0.000000 0.000000 0.000000
0 255 255
-349.514221 -256.108093 -419.654419
0.000000 0.000000 0.000000
0 255 255
-350.050995 -260.073914 -419.677765
0.000000 0.000000 0.000000
0 255 255
-350.493896 -264.044342 -419.679230
0.000000 0.000000 0.000000
0 255 255
-350.857880 -268.050659 -419.577362
0.000000 0.000000 0.000000
0 255 255
-351.218781 -272.050537 -419.491730
0.000000 0.000000 0.000000
0 255 255
-351.582458 -276.056610 -419.389832
0.000000 0.000000 0.000000
0 255 255
-352.001282 -280.033752 -419.306152
0.000000 0.000000 0.000000
0 255 255
-352.485229 -283.930054 -419.347412
0.000000 0.000000 0.000000
0 255 255
-352.975037 -287.838684 -419.356110
0.000000 0.000000 0.000000
0 255 255
-353.476379 -291.772308 -419.299683
0.000000 0.000000 0.000000
0 255 255
-353.869537 -295.679535 -419.302856
0.000000 0.000000 0.000000
0 255 255
-354.362061 -299.594147 -419.295166
0.000000 0.000000 0.000000
0 255 255
-354.866180 -303.533600 -419.222565
0.000000 0.000000 0.000000
0 255 255
-355.378082 -307.672577 -419.250092
0.000000 0.000000 0.000000
0 255 255
-355.926208 -311.887146 -419.150574
0.000000 0.000000 0.000000
0 255 255
-356.459930 -316.070526 -419.132172
0.000000 0.000000 0.000000
0 255 255
-357.180450 -320.242889 -419.157196
0.000000 0.000000 0.000000
0 255 255
-357.717041 -324.432312 -419.122620
0.000000 0.000000 0.000000
0 255 255
-358.253571 -328.621704 -419.088135
0.000000 0.000000 0.000000
0 255 255
-358.875061 -332.541046 -419.063629
0.000000 0.000000 0.000000
0 255 255
-359.493591 -336.392578 -419.040161
0.000000 0.000000 0.000000
0 255 255
-360.103455 -340.225372 -419.065216
0.000000 0.000000 0.000000
0 255 255
-360.713257 -344.058044 -419.090271
0.000000 0.000000 0.000000
0 255 255
-361.345856 -347.940186 -418.986206
0.000000 0.000000 0.000000
0 255 255
-371.378784 -401.328583 -419.090088
0.000000 0.000000 0.000000
0 255 255
-371.809174 -404.422943 -419.198273
0.000000 0.000000 0.000000
0 255 255
-372.334869 -407.516968 -419.311920
0.000000 0.000000 0.000000
0 255 255
-372.788513 -410.666748 -419.276184
0.000000 0.000000 0.000000
0 255 255
-373.157227 -413.841370 -419.171112
0.000000 0.000000 0.000000
0 255 255
-373.610840 -416.991028 -419.135468
0.000000 0.000000 0.000000
0 255 255
-177.664917 -789.452148 -519.745361
0.000000 0.000000 0.000000
0 255 255
-176.978867 -789.304382 -519.817017
0.000000 0.000000 0.000000
0 255 255
-176.359741 -788.909485 -520.039551
0.000000 0.000000 0.000000
0 255 255
-175.739777 -788.575134 -520.395813
0.000000 0.000000 0.000000
0 255 255
-174.838974 -788.211060 -520.892761
0.000000 0.000000 0.000000
0 255 255
-173.669601 -787.985535 -520.960144
0.000000 0.000000 0.000000
0 255 255
-172.472351 -787.873230 -520.986511
0.000000 0.000000 0.000000
0 255 255
-171.248627 -787.813477 -520.837830
0.000000 0.000000 0.000000
0 255 255
-170.039810 -787.666809 -520.642700
0.000000 0.000000 0.000000
0 255 255
-168.844681 -787.493835 -520.534668
0.000000 0.000000 0.000000
0 255 255
-167.138794 -787.202820 -520.483582
0.000000 0.000000 0.000000
0 255 255
-164.171860 -786.909058 -520.441223
0.000000 0.000000 0.000000
0 255 255
-161.202499 -786.565369 -520.229553
0.000000 0.000000 0.000000
0 255 255
-158.223953 -786.243225 -519.947510
0.000000 0.000000 0.000000
0 255 255
-155.229385 -786.013062 -519.693848
0.000000 0.000000 0.000000
0 255 255
-152.273132 -785.648987 -519.548889
0.000000 0.000000 0.000000
0 255 255
-149.274918 -785.539001 -519.558960
0.000000 0.000000 0.000000
0 255 255
-145.473801 -785.207764 -519.514282
0.000000 0.000000 0.000000
0 255 255
-141.652374 -784.924072 -519.311340
0.000000 0.000000 0.000000
0 255 255
-137.812454 -784.737549 -519.118164
0.000000 0.000000 0.000000
0 255 255
-133.958176 -784.587646 -518.802063
0.000000 0.000000 0.000000
0 255 255
-130.139389 -784.309387 -518.576294
0.000000 0.000000 0.000000
0 255 255
-126.333069 -784.004944 -518.434692
0.000000 0.000000 0.000000
0 255 255
-122.417114 -783.597229 -518.442932
0.000000 0.000000 0.000000
0 255 255
-118.370819 -783.089172 -518.261719
0.000000 0.000000 0.000000
0 255 255
-114.318283 -782.646484 -518.193115
0.000000 0.000000 0.000000
0 255 255
-110.232506 -782.337219 -518.012634
0.000000 0.000000 0.000000
0 255 255
-106.168373 -781.931396 -517.818481
0.000000 0.000000 0.000000
0 255 255
-102.085693 -781.622009 -517.633240
0.000000 0.000000 0.000000
0 255 255
-97.993996 -781.372620 -517.544250
0.000000 0.000000 0.000000
0 255 255
-93.919495 -781.001282 -517.395508
0.000000 0.000000 0.000000
0 255 255
-89.840866 -780.645508 -517.192688
0.000000 0.000000 0.000000
0 255 255
-85.772179 -780.229858 -516.856262
0.000000 0.000000 0.000000
0 255 255
-81.703987 -779.853027 -516.717529
0.000000 0.000000 0.000000
0 255 255
-77.663902 -779.359314 -516.634155
0.000000 0.000000 0.000000
0 255 255
-73.627960 -778.855286 -516.582764
0.000000 0.000000 0.000000
0 255 255
-69.759254 -778.353210 -516.469421
0.000000 0.000000 0.000000
0 255 255
-65.888908 -777.950317 -516.348511
0.000000 0.000000 0.000000
0 255 255
-62.029785 -777.487488 -516.094604
0.000000 0.000000 0.000000
0 255 255
-58.154877 -777.110413 -515.883606
0.000000 0.000000 0.000000
0 255 255
-54.282890 -776.728088 -515.687866
0.000000 0.000000 0.000000
0 255 255
-50.424385 -776.299316 -515.644165
0.000000 0.000000 0.000000
0 255 255
-46.433449 -775.824097 -515.507080
0.000000 0.000000 0.000000
0 255 255
-42.388233 -775.323730 -515.345520
0.000000 0.000000 0.000000
0 255 255
-38.342220 -774.833313 -515.147461
0.000000 0.000000 0.000000
0 255 255
-34.299149 -774.337769 -514.964172
0.000000 0.000000 0.000000
0 255 255
-29.267197 -778.477478 -517.955933
0.000000 0.000000 0.000000
0 255 255
-25.629684 -776.077942 -516.411987
0.000000 0.000000 0.000000
0 255 255
-22.062933 -773.487732 -514.838867
0.000000 0.000000 0.000000
0 255 255
-18.268867 -772.111267 -514.432373
0.000000 0.000000 0.000000
0 255 255
-14.303547 -771.534485 -514.321960
0.000000 0.000000 0.000000
0 255 255
-10.331657 -771.002991 -514.056213
0.000000 0.000000 0.000000
0 255 255
-4.827772 -777.928040 -509.092926
0.000000 0.000000 0.000000
0 255 255
-2.389088 -769.939331 -513.851746
0.000000 0.000000 0.000000
0 255 255
1.523499 -769.137207 -513.815979
0.000000 0.000000 0.000000
0 255 255
5.641461 -768.634216 -513.614624
0.000000 0.000000 0.000000
0 255 255
9.725147 -767.951416 -513.674438
0.000000 0.000000 0.000000
0 255 255
13.804296 -767.307983 -513.263367
0.000000 0.000000 0.000000
0 255 255
17.868856 -766.565002 -513.189636
0.000000 0.000000 0.000000
0 255 255
21.978270 -766.056641 -512.980957
0.000000 0.000000 0.000000
0 255 255
25.973318 -764.983948 -513.025391
0.000000 0.000000 0.000000
0 255 255
29.937859 -764.278442 -512.888977
0.000000 0.000000 0.000000
0 255 255
33.877995 -763.597107 -512.685730
0.000000 0.000000 0.000000
0 255 255
37.794350 -762.805908 -512.521545
0.000000 0.000000 0.000000
0 255 255
41.732098 -762.144409 -512.247009
0.000000 0.000000 0.000000
0 255 255
45.640728 -761.283875 -512.315125
0.000000 0.000000 0.000000
0 255 255
49.571617 -760.557922 -512.255859
0.000000 0.000000 0.000000
0 255 255
53.308617 -759.807068 -512.268188
0.000000 0.000000 0.000000
0 255 255
56.977909 -759.014893 -512.084717
0.000000 0.000000 0.000000
0 255 255
60.666630 -758.322937 -511.892212
0.000000 0.000000 0.000000
0 255 255
64.353882 -757.640564 -511.664307
0.000000 0.000000 0.000000
0 255 255
68.039200 -756.948486 -511.468445
0.000000 0.000000 0.000000
0 255 255
71.722565 -756.186646 -511.506531
0.000000 0.000000 0.000000
0 255 255
75.523308 -755.330200 -511.318176
0.000000 0.000000 0.000000
0 255 255
79.573814 -754.496948 -511.387512
0.000000 0.000000 0.000000
0 255 255
83.601212 -753.638672 -511.209656
0.000000 0.000000 0.000000
0 255 255
87.647743 -752.875122 -511.038788
0.000000 0.000000 0.000000
0 255 255
91.672501 -751.987000 -510.957458
0.000000 0.000000 0.000000
0 255 255
95.674126 -751.019165 -510.814392
0.000000 0.000000 0.000000
0 255 255
99.742355 -750.187561 -510.789978
0.000000 0.000000 0.000000
0 255 255
103.884491 -749.198059 -510.660492
0.000000 0.000000 0.000000
0 255 255
108.025604 -748.198608 -510.562317
0.000000 0.000000 0.000000
0 255 255
112.162689 -747.228760 -510.361053
0.000000 0.000000 0.000000
0 255 255
116.299469 -746.239502 -510.224792
0.000000 0.000000 0.000000
0 255 255
120.436478 -745.230042 -510.153290
0.000000 0.000000 0.000000
0 255 255
124.459991 -744.231995 -510.133118
0.000000 0.000000 0.000000
0 255 255
128.003357 -743.273315 -510.015808
0.000000 0.000000 0.000000
0 255 255
131.540558 -742.354370 -509.762817
0.000000 0.000000 0.000000
0 255 255
135.102936 -741.485168 -509.667603
0.000000 0.000000 0.000000
0 255 255
138.663345 -740.620972 -509.553894
0.000000 0.000000 0.000000
0 255 255
142.198425 -739.682251 -509.363312
0.000000 0.000000 0.000000
0 255 255
145.736359 -738.713806 -509.271423
0.000000 0.000000 0.000000
0 255 255
148.904068 -737.914307 -509.155212
0.000000 0.000000 0.000000
0 255 255
151.915527 -737.167847 -509.092682
0.000000 0.000000 0.000000
0 255 255
154.904160 -736.331848 -509.003998
0.000000 0.000000 0.000000
0 255 255
157.889420 -735.510925 -508.864288
0.000000 0.000000 0.000000
0 255 255
160.874512 -734.685120 -508.740295
0.000000 0.000000 0.000000
0 255 255
163.861374 -733.844055 -508.665253
0.000000 0.000000 0.000000
0 255 255
166.842743 -733.028381 -508.505829
0.000000 0.000000 0.000000
0 255 255
168.301727 -732.537659 -508.526337
0.000000 0.000000 0.000000
0 255 255
169.607437 -732.160828 -508.559937
0.000000 0.000000 0.000000
0 255 255
170.935394 -731.873535 -508.618011
0.000000 0.000000 0.000000
0 255 255
172.246033 -731.471375 -508.734680
0.000000 0.000000 0.000000
0 255 255
173.581299 -731.148987 -508.909546
0.000000 0.000000 0.000000
0 255 255
174.896332 -730.726746 -509.093231
0.000000 0.000000 0.000000
0 255 255
176.226486 -730.393127 -509.220703
0.000000 0.000000 0.000000
0 255 255
177.513199 -729.967285 -509.155243
0.000000 0.000000 0.000000
0 255 255
178.797653 -729.551270 -509.055908
0.000000 0.000000 0.000000
0 255 255
