ply
format ascii 1.0
comment pointcloud saved from Fourth Logic(R) FLImaging(R)
element vertex 30
property float32 x
property float32 y
property float32 z
property uchar red
property uchar green
property uchar blue
end_header
0.350927 -0.107144 0.930253
255 255 255
0.461750 -0.818333 -0.342227
255 255 255
-0.942531 -0.069839 0.326739
255 255 255
-0.942516 -0.304640 -0.137324
255 255 255
0.760038 -0.361537 0.540032
255 255 255
-0.700572 0.695482 0.159700
255 255 255
-0.409452 -0.400026 -0.819956
255 255 255
-0.848840 -0.527102 0.040413
255 255 255
0.249297 0.436652 -0.864399
255 255 255
0.217998 0.042319 -0.975031
255 255 255
0.309384 -0.576826 0.756012
255 255 255
-0.933264 0.132490 0.333864
255 255 255
-0.211428 -0.044431 -0.976383
255 255 255
0.081895 0.044377 -0.995652
255 255 255
-0.251883 0.610969 -0.750514
255 255 255
-0.503861 -0.117534 -0.855751
255 255 255
-0.132957 -0.152337 0.979345
255 255 255
0.485968 0.627322 0.608524
255 255 255
-0.149495 -0.925293 0.348546
255 255 255
-0.785658 -0.508406 0.352513
255 255 255
0.801219 -0.475881 0.362747
255 255 255
0.969177 -0.216063 -0.118373
255 255 255
-0.287351 -0.403694 0.868597
255 255 255
0.636206 -0.769203 0.059737
255 255 255
-0.935454 -0.084111 0.343293
255 255 255
-0.991570 0.096363 0.086616
255 255 255
0.860605 0.340815 -0.378422
255 255 255
0.426776 0.900786 0.080297
255 255 255
-0.980773 0.050258 0.188569
255 255 255
0.775166 0.252160 -0.579253
255 255 255
